<svg xmlns="http://www.w3.org/2000/svg" style="background-color:transparent" viewBox="0 0 95 95"><defs><radialGradient id="b" cx="64.8" cy="43.2" r="11.3" gradientUnits="userSpaceOnUse"><stop offset="0" stop-color="#fff"/><stop offset="1" stop-opacity="0"/></radialGradient><radialGradient id="d" cx="64.8" cy="43.2" r="11.3" gradientTransform="matrix(.81137 -.09169 -.01114 .86802 12.704 11.643)" gradientUnits="userSpaceOnUse"><stop offset="0" stop-color="#fff"/><stop offset="1" stop-color="#fff" stop-opacity="0"/></radialGradient><linearGradient id="a" x1="45.1" x2="84.952" gradientUnits="userSpaceOnUse"><stop offset="0" stop-color="#fff"/><stop offset="1" stop-color="#a2ffff"/></linearGradient></defs><path fill="none" d="M4.177 4.177h86.646v86.646H4.177z"/><path stroke="#000" stroke-width="2.19816" d="M28.134 34.891c0 7.015 5.686 12.7 12.7 12.7s12.7-5.685 12.7-12.7-5.685-12.7-12.7-12.7-12.7 5.686-12.7 12.7z"/><path fill="#ff0" stroke="#000" stroke-width="1.8" d="M39.599 58.252c2.651 12.903 14.854 24.58 27.255 26.078s20.305-7.744 17.653-20.648-14.854-24.579-27.255-26.078-20.305 7.745-17.653 20.648z"/><path fill="url(#a)" stroke="#000" stroke-width="1.8" d="M46 45.8c18.6 1.6 46.132 11.217 35.8 26s-31-8.4-35.8-26z" transform="matrix(-1 0 0 1 94.032 -1.307)"/><path d="M70.188 42.818a36.7 36.7 0 0 1 6.062 5.313c-1.638.126-3.55.298-5.718.594-5.408.738-11.766 2.26-14.781 4.312l-.125.094c-2.96 2.085-6.866 7.662-9.72 12.688-.64 1.13-1.209 2.192-1.75 3.219-1.428-2.194-2.608-4.524-3.468-6.938 2.045-6.09 4.547-12.949 9.031-16 4.525-3.079 12.42-3.326 19.062-3.281.815.006.652-.004 1.406 0zm10.281 10.906a33 33 0 0 1 2.813 5.72c-1.18.114-2.444.254-3.782.437-5.662.773-12.312 2.352-15.469 4.5l-.156.093c-3.099 2.183-7.17 8.02-10.156 13.281-.173.305-.302.575-.469.875a37 37 0 0 1-5.093-4.5c2.155-6.434 4.808-13.766 9.562-17 4.738-3.223 12.982-3.453 19.938-3.406 1.626.011 1.433-.005 2.813 0zm4.281 11.344c.254 1.69.321 3.311.219 4.844-4.396.613-9.496 1.839-11.938 3.5l-.094.094c-2.425 1.708-5.63 6.258-7.969 10.375-.024.043-.038.082-.062.125a27 27 0 0 1-4.781-1.469c.162-.465.304-.885.468-1.375 1.693-5.057 3.757-10.859 7.5-13.406 3.708-2.523 10.182-2.724 15.625-2.687z"/><path fill="url(#a)" stroke="#000" stroke-width="1.8" d="M45.302 46.719c11.846 9.186 26.222 27.672 12.811 33.138S40.868 60.681 45.302 46.719z" transform="matrix(-1 0 0 1 94.032 -1.307)"/><path fill="url(#b)" d="M75.2 43.2c0 5.744-4.656 10.4-10.4 10.4s-10.4-4.656-10.4-10.4 4.656-10.4 10.4-10.4 10.4 4.656 10.4 10.4" transform="matrix(-.80583 0 -.55717 .8634 114.605 -4.804)"/><path stroke="#000" d="M29.332 30.093c-9.875-.2-11.102-1.052-13.15 1.675s-3.15 7.287-.6 7.3 2.405-4.507 3.143-6.362 5.507-2.3 10.607-2.613zM39.894 23.452c0-9.877-.828-11.12 1.94-13.113s7.35-3.001 7.311-.452-4.555 2.313-6.424 3.014-2.411 5.46-2.827 10.552z"/><g fill="url(#a)" stroke="#000" stroke-width="1.8" transform="rotate(-90 46.148 27.801)"><path d="M29.702 30.083c18.6 1.6 46.132 11.217 35.8 26s-31-8.4-35.8-26z"/><path d="M29.005 31.002c11.846 9.186 26.222 27.672 12.811 33.138S24.571 44.964 29.005 31.002z"/></g><path d="m80.12 80.244 5.328 9.46-8.155-7.394z"/><path fill="url(#d)" d="M75.2 43.2c0 5.744-4.656 10.4-10.4 10.4s-10.4-4.656-10.4-10.4 4.656-10.4 10.4-10.4 10.4 4.656 10.4 10.4" transform="matrix(0 .96103 1.0698 .66449 16.057 -31.013)"/></svg>